<svg width="33" height="35" viewBox="0 0 33 35" fill="none" xmlns="http://www.w3.org/2000/svg">
<path d="M16.8173 33.125C16.8173 32.9167 16.7115 32.8125 16.5 32.8125C15.72 32.8125 15.049 32.5358 14.4871 31.9824C13.9252 31.429 13.6442 30.7682 13.6442 30C13.6442 29.7917 13.5385 29.6875 13.3269 29.6875C13.1154 29.6875 13.0096 29.7917 13.0096 30C13.0096 30.9505 13.3501 31.7611 14.0309 32.4316C14.7118 33.1022 15.5349 33.4375 16.5 33.4375C16.7115 33.4375 16.8173 33.3333 16.8173 33.125ZM3.60938 27.5H29.3906C25.8738 23.5938 24.1154 18.1771 24.1154 11.25C24.1154 10.5859 23.9567 9.90234 23.6394 9.19922C23.3221 8.49609 22.866 7.82552 22.271 7.1875C21.6761 6.54948 20.8729 6.02539 19.8615 5.61523C18.8501 5.20508 17.7296 5 16.5 5C15.2704 5 14.1499 5.20508 13.1385 5.61523C12.1271 6.02539 11.3239 6.54948 10.729 7.1875C10.134 7.82552 9.67788 8.49609 9.36058 9.19922C9.04327 9.90234 8.88461 10.5859 8.88461 11.25C8.88461 18.1771 7.1262 23.5938 3.60938 27.5ZM33 27.5C33 28.1771 32.7488 28.763 32.2464 29.2578C31.744 29.7526 31.149 30 30.4615 30H21.5769C21.5769 31.3802 21.0811 32.5586 20.0895 33.5352C19.098 34.5117 17.9014 35 16.5 35C15.0986 35 13.902 34.5117 12.9105 33.5352C11.9189 32.5586 11.4231 31.3802 11.4231 30H2.53846C1.85096 30 1.25601 29.7526 0.753606 29.2578C0.251202 28.763 0 28.1771 0 27.5C0.661058 26.9531 1.26262 26.3802 1.80469 25.7812C2.34675 25.1823 2.90865 24.4043 3.49038 23.4473C4.07212 22.4902 4.5646 21.4583 4.96785 20.3516C5.37109 19.2448 5.70162 17.9036 5.95943 16.3281C6.21725 14.7526 6.34615 13.0599 6.34615 11.25C6.34615 9.27083 7.11959 7.43164 8.66647 5.73242C10.2133 4.0332 12.2428 3.0013 14.7548 2.63672C14.649 2.38932 14.5962 2.13542 14.5962 1.875C14.5962 1.35417 14.7812 0.911458 15.1514 0.546875C15.5216 0.182292 15.9712 0 16.5 0C17.0288 0 17.4784 0.182292 17.8486 0.546875C18.2188 0.911458 18.4038 1.35417 18.4038 1.875C18.4038 2.13542 18.351 2.38932 18.2452 2.63672C20.7572 3.0013 22.7867 4.0332 24.3335 5.73242C25.8804 7.43164 26.6538 9.27083 26.6538 11.25C26.6538 13.0599 26.7827 14.7526 27.0406 16.3281C27.2984 17.9036 27.6289 19.2448 28.0322 20.3516C28.4354 21.4583 28.9279 22.4902 29.5096 23.4473C30.0913 24.4043 30.6532 25.1823 31.1953 25.7812C31.7374 26.3802 32.3389 26.9531 33 27.5Z" fill="#672F98"/>
</svg>
