<svg width="35" height="35" viewBox="0 0 35 35" fill="none" xmlns="http://www.w3.org/2000/svg">
<path d="M4.94796 0.00199694C4.92324 0.00303561 4.89861 0.0055399 4.87419 0.00949707H0.625216C0.459399 0.00949707 0.300373 0.0753485 0.183122 0.192565C0.0658709 0.309781 0 0.46876 0 0.634528C0 0.800297 0.0658709 0.959276 0.183122 1.07649C0.300373 1.19371 0.459399 1.25956 0.625216 1.25956H4.4853L5.25307 4.44597C5.25539 4.45435 5.2579 4.46269 5.26057 4.47097L8.91809 19.6942L10.5374 26.4321C8.70551 26.9546 7.34879 28.6297 7.34879 30.6248C7.34879 33.0336 9.31447 35 11.7241 35C14.1324 35 16.1006 33.0336 16.1006 30.6248C16.1006 29.4085 15.5966 28.3084 14.7914 27.5146H23.5069C23.093 27.9201 22.7642 28.404 22.5396 28.938C22.315 29.472 22.1992 30.0455 22.1989 30.6248C22.1989 33.0336 24.1659 35 26.5754 35C27.7351 34.9974 28.8465 34.5355 29.6663 33.7155C30.4861 32.8954 30.9475 31.7841 30.9495 30.6248C30.9495 28.4022 29.2701 26.5746 27.1194 26.3033C27.0973 26.2954 27.0747 26.2887 27.0519 26.2833C27.0117 26.273 26.9707 26.2667 26.9293 26.2646C26.9148 26.2632 26.9002 26.2624 26.8856 26.2621H26.698C26.6555 26.2608 26.6167 26.2496 26.5754 26.2496C26.5329 26.2496 26.4942 26.2608 26.4529 26.2621H11.8479C11.8253 26.2621 11.8028 26.2546 11.7803 26.2546L10.2736 19.9817H29.5015C29.6331 19.9814 29.7612 19.9395 29.8677 19.8621C29.9741 19.7846 30.0534 19.6756 30.0942 19.5505L34.9696 4.53972C35 4.44601 35.0077 4.34644 34.9923 4.24916C34.9768 4.15187 34.9386 4.05961 34.8806 3.97991C34.8227 3.90021 34.7468 3.83532 34.6591 3.79053C34.5713 3.74574 34.4742 3.72232 34.3756 3.72218H7.11871L6.3597 3.69218L5.58818 0.487021C5.58344 0.465898 5.57759 0.445035 5.57068 0.424518C5.52707 0.295811 5.44269 0.184818 5.33033 0.10835C5.21796 0.031883 5.08373 -0.0058922 4.94796 0.000746674V0.00199694ZM6.66106 4.95599L7.07995 4.9735C7.0887 4.97368 7.09746 4.97368 7.10621 4.9735H33.5154L31.4834 11.2326H18.2488C18.2276 11.2315 18.2063 11.2315 18.185 11.2326C18.1029 11.2367 18.0224 11.2569 17.9482 11.2921C17.8739 11.3273 17.8073 11.3768 17.7521 11.4377C17.697 11.4987 17.6543 11.5699 17.6267 11.6473C17.5991 11.7247 17.587 11.8068 17.5911 11.8888C17.5952 11.9709 17.6154 12.0514 17.6506 12.1257C17.6859 12.1999 17.7354 12.2665 17.7963 12.3217C17.8573 12.3768 17.9285 12.4194 18.0059 12.447C18.0834 12.4746 18.1655 12.4867 18.2476 12.4826H31.077L29.0476 18.7354H10.101C10.0591 18.7346 10.0172 18.7379 9.97595 18.7454L6.66106 4.95599ZM11.574 27.5159H11.8766C12.6781 27.5504 13.4352 27.8933 13.9896 28.473C14.544 29.0526 14.8528 29.8241 14.8514 30.626C14.8514 32.3599 13.4584 33.7512 11.7253 33.7512C11.3145 33.7525 10.9076 33.6726 10.5278 33.5159C10.1481 33.3593 9.80311 33.1291 9.51277 32.8386C9.22242 32.5481 8.99244 32.2031 8.83608 31.8233C8.67972 31.4436 8.60008 31.0367 8.60173 30.626C8.6 29.8244 8.90835 29.0531 9.46229 28.4735C10.0162 27.8938 10.7729 27.5507 11.574 27.5159ZM26.4254 27.5159H26.728C27.5291 27.5507 28.2858 27.8938 28.8397 28.4735C29.3937 29.0531 29.702 29.8244 29.7003 30.626C29.7019 31.0367 29.6223 31.4436 29.4659 31.8233C29.3096 32.2031 29.0796 32.5481 28.7892 32.8386C28.4989 33.1291 28.1539 33.3593 27.7742 33.5159C27.3945 33.6726 26.9875 33.7525 26.5767 33.7512C26.1659 33.7523 25.7588 33.6723 25.379 33.5156C24.9992 33.359 24.6542 33.1289 24.3636 32.8384C24.0731 32.548 23.8429 32.203 23.6862 31.8233C23.5295 31.4437 23.4495 31.0368 23.4506 30.626C23.4492 29.8241 23.758 29.0526 24.3124 28.473C24.8668 27.8933 25.6239 27.5504 26.4254 27.5159Z" fill="#672F98"/>
</svg>
