<svg width="15" height="15" viewBox="0 0 15 15" fill="none" xmlns="http://www.w3.org/2000/svg">
<path d="M3.97091 0.983119C3.63917 0.99747 3.32077 1.15624 3.13917 1.39702C2.96691 1.62368 2.94584 1.89179 3.01571 1.99498L6.73064 7.53698C6.81144 7.65703 6.76237 7.81102 6.62397 7.88095C6.57651 7.90373 6.52664 7.91421 6.47811 7.91421C6.37651 7.91421 6.27811 7.86934 6.22397 7.78824L2.81571 2.7057C2.67811 2.50046 2.40157 2.3795 2.08504 2.39727C1.75011 2.41276 1.43251 2.57039 1.25171 2.81026C1.07944 3.03805 1.05837 3.30594 1.12824 3.40799L4.68344 8.71286C4.76424 8.83382 4.71571 8.98667 4.57677 9.05683C4.52931 9.08052 4.47944 9.08986 4.43091 9.08986C4.32931 9.08986 4.23091 9.04498 4.17677 8.96434L1.64771 5.24834C1.59757 5.23057 1.48771 5.21143 1.28371 5.22214C1.08104 5.23262 0.804507 5.3693 0.64504 5.57568C0.499173 5.76566 0.478373 5.98639 0.589307 6.15222L4.78931 12.4191C5.45864 13.4157 6.04931 13.6198 6.62104 13.818C7.06584 13.9724 7.52424 14.1348 7.92824 14.6303L13.7141 11.7535C13.6573 11.3286 13.8418 10.6001 14.1282 9.53611L14.1752 9.36435C14.4517 8.27937 14.2085 7.59166 13.9282 6.79574C13.7325 6.24129 13.5293 5.66839 13.4725 4.90551C13.4725 4.7358 13.4781 4.59366 13.4834 4.46404C13.4906 4.24582 13.5016 3.97292 13.4557 3.91141C12.9906 3.92326 12.6333 4.03237 12.3874 4.2506C12.0832 4.51643 11.9365 4.95425 11.9498 5.54743L12.153 7.20828C12.1821 7.44815 11.7696 7.60236 11.6082 7.36136L7.54904 1.30363C7.41011 1.09816 7.12397 0.979474 6.81677 0.996103C6.48344 1.01045 6.16424 1.16923 5.98237 1.40887C5.81144 1.63438 5.79064 1.90136 5.92504 2.10546L8.93757 6.59733C9.01837 6.71829 8.96984 6.87274 8.83091 6.9413C8.78344 6.96499 8.73357 6.97547 8.68504 6.97547C8.58344 6.97547 8.48504 6.9306 8.43091 6.84996L4.63491 1.18973C4.56664 1.08745 4.28904 0.968768 3.97091 0.983119Z" fill="black"/>
</svg>
