<svg width="35" height="35" viewBox="0 0 35 35" fill="none" xmlns="http://www.w3.org/2000/svg">
<path d="M12.2341 11.6168C12.1634 10.1484 12.6773 8.71172 13.6632 7.62094C14.6491 6.53016 16.027 5.87402 17.4954 5.79599C18.9639 5.87402 20.3417 6.53016 21.3276 7.62094C22.3136 8.71172 22.8274 10.1484 22.7568 11.6168C22.8249 13.0834 22.3099 14.5174 21.3242 15.6057C20.3384 16.694 18.962 17.3481 17.4954 17.4252C16.0289 17.3481 14.6524 16.694 13.6667 15.6057C12.6809 14.5174 12.1659 13.0834 12.2341 11.6168ZM35 17.5C35.0053 20.974 33.9672 24.3697 32.0202 27.2472C31.9692 27.3351 31.9108 27.4185 31.8457 27.4964C30.2371 29.8122 28.0916 31.7042 25.5927 33.0108C23.0937 34.3175 20.3155 35 17.4954 35C14.6753 35 11.8971 34.3175 9.39815 33.0108C6.8992 31.7042 4.75378 29.8122 3.14516 27.4964C3.07999 27.4185 3.02159 27.3351 2.97062 27.2472C1.44645 24.9775 0.475517 22.3823 0.135677 19.6697C-0.204162 16.9572 0.0965529 14.2027 1.01371 11.6274C1.93086 9.05196 3.43892 6.72728 5.41695 4.83974C7.39499 2.9522 9.78793 1.55433 12.4039 0.758245C15.0198 -0.0378378 17.786 -0.209983 20.4805 0.255616C23.175 0.721215 25.7229 1.8116 27.9198 3.43932C30.1167 5.06705 31.9015 7.18681 33.1311 9.62861C34.3606 12.0704 35.0007 14.7663 35 17.5ZM1.861 17.5C1.85631 20.1556 2.53007 22.7685 3.81842 25.0908C6.52389 21.5385 11.7104 19.3198 17.4954 19.3198C23.2804 19.3198 28.4669 21.5385 31.1724 25.0908C32.331 23.004 32.9963 20.6796 33.1172 18.2959C33.2382 15.9122 32.8116 13.5325 31.8703 11.3391C30.9289 9.14572 29.4977 7.19693 27.6864 5.64212C25.8751 4.0873 23.7317 2.96773 21.4206 2.36922C19.1095 1.77071 16.692 1.70916 14.3534 2.18927C12.0148 2.66938 9.81726 3.67842 7.92912 5.13904C6.04097 6.59965 4.5124 8.47307 3.46057 10.6157C2.40874 12.7583 1.86156 15.1133 1.861 17.5Z" fill="#672F98"/>
</svg>
