<svg width="23" height="32" viewBox="0 0 23 32" fill="none" xmlns="http://www.w3.org/2000/svg">
<path d="M21.3571 0H1.64286C1.20714 0 0.789278 0.168569 0.481182 0.468623C0.173087 0.768677 3.5573e-09 1.17564 3.5573e-09 1.59998V30.3996C-2.06595e-05 30.7054 0.0899772 31.0049 0.259332 31.2625C0.428686 31.52 0.670301 31.725 0.955552 31.8529C1.2408 31.9809 1.55774 32.0265 1.86881 31.9845C2.17988 31.9424 2.47205 31.8144 2.71071 31.6156L11.5 24.4317L20.1907 31.5356C20.3442 31.6838 20.5263 31.8012 20.7264 31.8808C20.9266 31.9604 21.1409 32.0008 21.3571 31.9996C21.5726 32.005 21.7865 31.9611 21.9814 31.8716C22.2814 31.7515 22.5383 31.5477 22.7195 31.2857C22.9008 31.0238 22.9984 30.7155 23 30.3996V1.59998C23 1.17564 22.8269 0.768677 22.5188 0.468623C22.2107 0.168569 21.7929 0 21.3571 0ZM19.7143 26.9756L12.5514 21.1197C12.2562 20.8802 11.8842 20.7491 11.5 20.7491C11.1158 20.7491 10.7438 20.8802 10.4486 21.1197L3.28571 26.9756V3.19996H19.7143V26.9756Z" fill="black"/>
</svg>
