<svg width="35" height="35" viewBox="0 0 35 35" fill="none" xmlns="http://www.w3.org/2000/svg">
<path d="M34.425 31.6648L27.816 25.0753C29.9484 22.3587 31.1054 19.004 31.1011 15.5506C31.1011 12.4749 30.1891 9.4684 28.4804 6.91113C26.7716 4.35386 24.343 2.36071 21.5015 1.18372C18.66 0.00673776 15.5333 -0.301215 12.5168 0.298806C9.50028 0.898827 6.72944 2.37987 4.55466 4.55466C2.37987 6.72944 0.898827 9.50028 0.298806 12.5168C-0.301215 15.5333 0.00673776 18.66 1.18372 21.5015C2.36071 24.343 4.35386 26.7716 6.91113 28.4804C9.4684 30.1891 12.4749 31.1011 15.5506 31.1011C19.004 31.1054 22.3587 29.9484 25.0753 27.816L31.6648 34.425C31.8455 34.6072 32.0605 34.7518 32.2974 34.8505C32.5342 34.9492 32.7883 35 33.0449 35C33.3015 35 33.5556 34.9492 33.7925 34.8505C34.0293 34.7518 34.2443 34.6072 34.425 34.425C34.6072 34.2443 34.7518 34.0293 34.8505 33.7925C34.9492 33.5556 35 33.3015 35 33.0449C35 32.7883 34.9492 32.5342 34.8505 32.2974C34.7518 32.0605 34.6072 31.8455 34.425 31.6648ZM3.88764 15.5506C3.88764 13.2438 4.57166 10.9889 5.8532 9.07099C7.13473 7.15303 8.95623 5.65817 11.0873 4.77543C13.2185 3.89269 15.5635 3.66173 17.8259 4.11174C20.0883 4.56176 22.1664 5.67254 23.7975 7.30363C25.4286 8.93472 26.5393 11.0128 26.9894 13.2752C27.4394 15.5376 27.2084 17.8826 26.3257 20.0138C25.4429 22.1449 23.9481 23.9664 22.0301 25.2479C20.1122 26.5294 17.8573 27.2135 15.5506 27.2135C12.4574 27.2135 9.49085 25.9847 7.30363 23.7975C5.11641 21.6103 3.88764 18.6437 3.88764 15.5506Z" fill="#672F98"/>
</svg>
