<svg width="31" height="31" viewBox="0 0 31 31" fill="none" xmlns="http://www.w3.org/2000/svg">
<path d="M24.802 18.62C23.8865 18.6261 22.9838 18.8346 22.1586 19.2306C21.3334 19.6266 20.6063 20.2002 20.0296 20.9103L12.1271 17.2737C12.4987 16.1374 12.4987 14.9126 12.1271 13.7764L20.0296 10.1397C20.9618 11.2632 22.2614 12.0216 23.699 12.2812C25.1366 12.5408 26.6199 12.2849 27.887 11.5586C29.1541 10.8324 30.1236 9.68241 30.6243 8.31174C31.1251 6.94107 31.125 5.43779 30.6239 4.06721C30.1229 2.69663 29.1532 1.54685 27.886 0.820807C26.6188 0.0947601 25.1355 -0.160886 23.6979 0.0989853C22.2603 0.358857 20.9608 1.11754 20.0288 2.24114C19.0968 3.36474 18.5922 4.78102 18.604 6.24004C18.6087 6.6087 18.645 6.97629 18.7125 7.33876L10.5311 11.0992C9.65891 10.2474 8.55437 9.67164 7.35593 9.44402C6.15749 9.2164 4.91844 9.34705 3.79402 9.8196C2.66959 10.2922 1.70981 11.0856 1.03491 12.1005C0.360003 13.1154 0 14.3067 0 15.525C0 16.7434 0.360003 17.9346 1.03491 18.9495C1.70981 19.9645 2.66959 20.7579 3.79402 21.2304C4.91844 21.703 6.15749 21.8336 7.35593 21.606C8.55437 21.3784 9.65891 20.8026 10.5311 19.9509L18.7125 23.7113C18.645 24.0738 18.6087 24.4413 18.604 24.81C18.604 26.0343 18.9675 27.231 19.6486 28.249C20.3296 29.2669 21.2976 30.0603 22.4301 30.5288C23.5627 30.9973 24.8089 31.1199 26.0112 30.8811C27.2135 30.6422 28.3178 30.0527 29.1846 29.187C30.0515 28.3213 30.6418 27.2184 30.8809 26.0176C31.1201 24.8169 30.9973 23.5723 30.5282 22.4412C30.0591 21.3101 29.2647 20.3434 28.2454 19.6632C27.2262 18.9831 26.0279 18.62 24.802 18.62ZM24.802 3.14504C25.4149 3.14504 26.0141 3.32656 26.5237 3.66664C27.0333 4.00673 27.4306 4.4901 27.6651 5.05563C27.8997 5.62117 27.961 6.24347 27.8415 6.84384C27.7219 7.44421 27.4267 7.99569 26.9933 8.42853C26.5599 8.86137 26.0077 9.15614 25.4066 9.27556C24.8054 9.39498 24.1823 9.33369 23.6161 9.09944C23.0498 8.86519 22.5658 8.46849 22.2253 7.95952C21.8848 7.45056 21.703 6.85217 21.703 6.24004C21.703 5.41919 22.0295 4.63197 22.6107 4.05155C23.1919 3.47112 23.9801 3.14504 24.802 3.14504ZM6.20805 18.62C5.59513 18.62 4.99597 18.4385 4.48635 18.0984C3.97672 17.7583 3.57951 17.275 3.34496 16.7094C3.1104 16.1439 3.04903 15.5216 3.16861 14.9212C3.28818 14.3208 3.58333 13.7694 4.01674 13.3365C4.45014 12.9037 5.00233 12.6089 5.60347 12.4895C6.20462 12.3701 6.82772 12.4314 7.39399 12.6656C7.96025 12.8999 8.44425 13.2966 8.78477 13.8055C9.12529 14.3145 9.30705 14.9129 9.30705 15.525C9.30705 16.3459 8.98055 17.1331 8.39937 17.7135C7.8182 18.2939 7.02996 18.62 6.20805 18.62ZM24.802 27.905C24.1891 27.905 23.5899 27.7235 23.0803 27.3834C22.5707 27.0433 22.1735 26.5599 21.9389 25.9944C21.7044 25.4289 21.643 24.8066 21.7626 24.2062C21.8821 23.6058 22.1773 23.0544 22.6107 22.6215C23.0441 22.1887 23.5963 21.8939 24.1974 21.7745C24.7986 21.6551 25.4217 21.7164 25.9879 21.9506C26.5542 22.1849 27.0382 22.5816 27.3787 23.0905C27.7193 23.5995 27.901 24.1979 27.901 24.81C27.901 25.6309 27.5745 26.4181 26.9933 26.9985C26.4122 27.5789 25.6239 27.905 24.802 27.905Z" fill="black"/>
</svg>
