<svg width="35" height="35" viewBox="0 0 35 35" fill="none" xmlns="http://www.w3.org/2000/svg">
<path d="M35 17.5C35 27.1651 27.1651 35 17.5 35C7.83485 35 0 27.1651 0 17.5C0 7.83485 7.83485 -9.53674e-07 17.5 -9.53674e-07C27.1651 -9.53674e-07 35 7.83485 35 17.5Z" fill="#EC8423"/>
<path d="M22.2745 16.416C22.8575 16.2268 23.4918 16.2769 24.0378 16.5554C24.5839 16.8339 24.997 17.3179 25.1862 17.9009C25.3754 18.4839 25.3252 19.1182 25.0467 19.6643C24.7682 20.2103 24.2843 20.6234 23.7012 20.8126C22.4855 21.2079 19.7164 21.0195 19.3211 19.8058C18.9268 18.5901 21.0577 16.8092 22.2745 16.416ZM31.0965 15.7242C31.0034 15.8349 30.8895 15.9262 30.7611 15.9929C30.6328 16.0596 30.4925 16.1003 30.3484 16.1128C30.2043 16.1253 30.0592 16.1092 29.9213 16.0656C29.7834 16.022 29.6554 15.9516 29.5447 15.8586C29.434 15.7655 29.3427 15.6515 29.276 15.5232C29.2093 15.3948 29.1686 15.2546 29.1561 15.1105C29.1436 14.9664 29.1597 14.8212 29.2033 14.6833C29.2469 14.5454 29.3173 14.4174 29.4103 14.3067C29.8026 13.8425 30.9689 13.2186 31.4342 13.6098C31.9005 14.001 31.4887 15.2579 31.0965 15.7242ZM8.44947 8.51833C8.26149 8.74194 7.99239 8.88171 7.70137 8.9069C7.41034 8.93209 7.12123 8.84065 6.89763 8.65267C6.67403 8.4647 6.53425 8.1956 6.50906 7.90458C6.48387 7.61355 6.57532 7.32444 6.76329 7.10084C7.15549 6.63657 8.32182 6.01275 8.78711 6.40392C9.25344 6.7951 8.84167 8.05201 8.44947 8.51833ZM20.8971 6.56863C20.5272 6.33233 20.2663 5.95876 20.1718 5.53009C20.0773 5.10141 20.1569 4.65276 20.3932 4.28282C20.6295 3.91288 21.0031 3.65196 21.4318 3.55746C21.8604 3.46296 22.3091 3.54263 22.679 3.77892C23.4501 4.27201 24.6071 5.88922 24.114 6.65922C23.6209 7.43025 21.6681 7.06172 20.8971 6.56863ZM12.738 12.9685C12.6125 12.707 12.5398 12.4233 12.524 12.1337C12.5082 11.8441 12.5496 11.5542 12.6458 11.2806C12.742 11.0069 12.8911 10.7549 13.0847 10.539C13.2783 10.323 13.5126 10.1472 13.7741 10.0218C14.0356 9.89634 14.3193 9.82362 14.6089 9.8078C14.8985 9.79198 15.1884 9.83335 15.462 9.92956C15.7357 10.0258 15.9876 10.1749 16.2036 10.3685C16.4196 10.5621 16.5953 10.7964 16.7208 11.0579C17.2489 12.1594 17.4228 14.808 16.3224 15.3341C15.2209 15.8632 13.2651 14.071 12.738 12.9685ZM13.7942 27.4822C13.9414 27.2682 14.1294 27.0853 14.3474 26.944C14.5653 26.8027 14.809 26.7058 15.0645 26.6588C15.3199 26.6117 15.5822 26.6155 15.8362 26.6699C16.0902 26.7243 16.3309 26.8282 16.5448 26.9757C16.9768 27.274 17.2727 27.7316 17.3673 28.2481C17.4619 28.7645 17.3474 29.2973 17.0492 29.7294C16.4284 30.6291 14.4468 31.9395 13.5492 31.3188C12.6484 30.697 13.1724 28.3808 13.7942 27.4822ZM24.1006 27.0642C23.762 26.8477 23.5232 26.5055 23.4368 26.113C23.3504 25.7204 23.4235 25.3096 23.64 24.9709C23.8565 24.6322 24.1987 24.3934 24.5912 24.307C24.9838 24.2206 25.3946 24.2937 25.7333 24.5102C26.4384 24.9611 27.4987 26.4425 27.0468 27.1476C26.5959 27.8558 24.8068 27.5172 24.1006 27.0642ZM4.66947 17.9323C4.85423 17.7178 5.07989 17.5424 5.33326 17.4161C5.58662 17.2899 5.86261 17.2154 6.14509 17.1971C6.42757 17.1788 6.71087 17.2169 6.97843 17.3093C7.24599 17.4018 7.49244 17.5466 7.70338 17.7354C7.91432 17.9241 8.08551 18.1531 8.20695 18.4088C8.32839 18.6645 8.39764 18.9418 8.41066 19.2246C8.42367 19.5073 8.38018 19.7899 8.28274 20.0557C8.1853 20.3214 8.03585 20.5651 7.84314 20.7725C7.05873 21.6526 4.76314 22.785 3.88814 21.9995C3.01005 21.213 3.88299 18.8083 4.66947 17.9323Z" fill="#8A4B38"/>
</svg>
