<svg width="35" height="28" viewBox="0 0 35 28" fill="none" xmlns="http://www.w3.org/2000/svg">
<path d="M4.0625 0C3.97962 0 3.90013 0.0263393 3.84153 0.0732234C3.78292 0.120107 3.75 0.183696 3.75 0.25V4.1785L0.04875 8.867C0.0171563 8.90677 0.000256712 8.95288 0 9V12.25C0 12.3163 0.0329241 12.3799 0.0915292 12.4268C0.150134 12.4737 0.22962 12.5 0.3125 12.5H2.50125V26H0.93875C0.85587 26 0.776384 26.0263 0.717779 26.0732C0.659174 26.1201 0.62625 26.1837 0.62625 26.25V27.75C0.62625 27.8163 0.659174 27.8799 0.717779 27.9268C0.776384 27.9737 0.85587 28 0.93875 28H34.0625C34.1454 28 34.2249 27.9737 34.2835 27.9268C34.3421 27.8799 34.375 27.8163 34.375 27.75V26.25C34.375 26.1837 34.3421 26.1201 34.2835 26.0732C34.2249 26.0263 34.1454 26 34.0625 26H32.5V12.5H34.6875C34.7704 12.5 34.8499 12.4737 34.9085 12.4268C34.9671 12.3799 35 12.3163 35 12.25V9C34.9997 8.95288 34.9828 8.90677 34.9513 8.867L31.25 4.1785V0.25C31.25 0.183696 31.2171 0.120107 31.1585 0.0732234C31.0999 0.0263393 31.0204 0 30.9375 0H4.0625ZM4.375 0.5H30.625V4H4.375V0.5ZM4.23438 4.5H5.9925L3.16062 8.8855C3.1375 8.92085 3.12529 8.96011 3.125 9V12H0.625V9.073L4.23438 4.5ZM6.69688 4.5H8.48625L6.27187 8.907C6.25725 8.9366 6.24982 8.96817 6.25 9V12H3.75V9.0615L6.69688 4.5ZM9.16 4.5H10.9769L9.3875 8.9315C9.37938 8.95376 9.37518 8.97681 9.375 9V12H6.875V9.049L9.16 4.5ZM11.6275 4.5H13.4644L12.505 8.958C12.5019 8.97186 12.5002 8.98591 12.5 9V12H10V9.035L11.6275 4.5ZM14.0981 4.5H15.9475L15.625 8.9865C15.6249 8.99067 15.6249 8.99483 15.625 8.999V12H13.125V9.0215L14.0981 4.5ZM16.5731 4.5H18.4262L18.75 9.008V12H16.25V9.008L16.5731 4.5ZM19.0525 4.5H20.9025L21.875 9.0215V12H19.375V8.999C19.3751 8.99483 19.3751 8.99067 19.375 8.9865L19.0525 4.5ZM21.5356 4.5H23.3731L25 9.035V12H22.5V9C22.4998 8.98591 22.4981 8.97186 22.495 8.958L21.5356 4.5ZM24.0231 4.5H25.84L28.125 9.049V12H25.625V9C25.6248 8.97681 25.6206 8.95376 25.6125 8.9315L24.0231 4.5ZM26.5138 4.5H28.3044L31.25 9.0615V12H28.75V9C28.7502 8.96817 28.7428 8.9366 28.7281 8.907L26.5138 4.5ZM29.0075 4.5H30.7656L34.375 9.073V12H31.875V9C31.8747 8.96011 31.8625 8.92085 31.8394 8.8855L29.0075 4.5ZM3.12625 12.5H31.875V26H11.875V18.25C11.875 18.1837 11.8421 18.1201 11.7835 18.0732C11.7249 18.0263 11.6454 18 11.5625 18H5.3125C5.22962 18 5.15013 18.0263 5.09153 18.0732C5.03292 18.1201 5 18.1837 5 18.25V26H3.12625V12.5ZM5.3125 13.5C5.22962 13.5 5.15013 13.5263 5.09153 13.5732C5.03292 13.6201 5 13.6837 5 13.75V16.75C5 16.8163 5.03292 16.8799 5.09153 16.9268C5.15013 16.9737 5.22962 17 5.3125 17H11.5625C11.6454 17 11.7249 16.9737 11.7835 16.9268C11.8421 16.8799 11.875 16.8163 11.875 16.75V13.75C11.875 13.6837 11.8421 13.6201 11.7835 13.5732C11.7249 13.5263 11.6454 13.5 11.5625 13.5H5.3125ZM16.5625 13.5C16.0487 13.5 15.625 13.839 15.625 14.25C15.625 14.661 16.0487 15 16.5625 15H18.4375V16.5615C18.2794 16.6215 18.1448 16.7149 18.0481 16.8315C17.8944 17.0155 17.8125 17.248 17.8125 17.5H14.0737C13.9909 17.5 13.9114 17.5263 13.8528 17.5732C13.7942 17.6201 13.7612 17.6837 13.7612 17.75L13.75 24.75C13.75 24.8163 13.7829 24.8799 13.8415 24.9268C13.9001 24.9737 13.9796 25 14.0625 25H29.7231C29.806 25 29.8855 24.9737 29.9441 24.9268C30.0027 24.8799 30.0356 24.8163 30.0356 24.75L30.0244 17.75C30.0244 17.6837 29.9915 17.6201 29.9328 17.5732C29.8742 17.5263 29.7948 17.5 29.7119 17.5H25.9375C25.9375 17.248 25.8563 17.0155 25.7019 16.831C25.6051 16.7145 25.4705 16.6214 25.3125 16.5615V15H27.1875C27.7013 15 28.125 14.661 28.125 14.25C28.125 13.839 27.7013 13.5 27.1875 13.5H16.5625ZM5.625 14H6.875V16.497V16.5H5.625V14ZM7.5 14H9.375V16.497V16.5H7.5V16.497V14ZM10 14H11.25V16.5H10V16.497V14ZM16.5625 14H27.1875C27.3662 14 27.5 14.107 27.5 14.25C27.5 14.393 27.3662 14.5 27.1875 14.5H16.5625C16.5212 14.5008 16.4801 14.4949 16.4417 14.4826C16.4033 14.4704 16.3685 14.452 16.3392 14.4286C16.31 14.4052 16.287 14.3773 16.2717 14.3466C16.2563 14.3159 16.249 14.2831 16.25 14.25C16.25 14.107 16.3838 14 16.5625 14ZM19.0625 15H24.6875V16.5615C24.5294 16.6215 24.3948 16.7149 24.2981 16.8315C24.1444 17.0155 24.0625 17.248 24.0625 17.5H19.6875C19.6875 17.248 19.6063 17.0155 19.4519 16.831C19.3551 16.7145 19.2205 16.6214 19.0625 16.5615V15ZM18.75 17C18.7962 17 18.8594 17.0215 18.9319 17.1085C19.0044 17.1955 19.0625 17.338 19.0625 17.5C19.0625 17.662 19.0044 17.8055 18.9319 17.8925C18.8594 17.9795 18.7956 18 18.75 18C18.7038 18 18.6406 17.9795 18.5681 17.8925C18.4956 17.8055 18.4375 17.6625 18.4375 17.5C18.4375 17.338 18.4956 17.195 18.5681 17.1085C18.6406 17.0215 18.7044 17 18.75 17ZM25 17C25.0462 17 25.1094 17.0215 25.1819 17.1085C25.2544 17.1955 25.3125 17.338 25.3125 17.5C25.3125 17.662 25.2544 17.8055 25.1819 17.8925C25.1094 17.9795 25.0456 18 25 18C24.9538 18 24.8906 17.9795 24.8181 17.8925C24.7456 17.8055 24.6875 17.6625 24.6875 17.5C24.6875 17.338 24.7456 17.195 24.8181 17.1085C24.8906 17.0215 24.9544 17 25 17ZM14.3862 18H17.9369C17.9688 18.06 18.0044 18.1175 18.0481 18.17C18.2019 18.3545 18.4506 18.5 18.75 18.5C19.0494 18.5 19.2981 18.3545 19.4519 18.17C19.4956 18.1175 19.5312 18.06 19.5631 18H24.1869C24.2188 18.06 24.2544 18.1175 24.2981 18.17C24.4519 18.3545 24.7006 18.5 25 18.5C25.2994 18.5 25.5481 18.3545 25.7019 18.17C25.7456 18.1175 25.7812 18.06 25.8131 18H29.4006L29.4106 24.5H14.375L14.3862 18ZM5.625 18.5H11.25V26H5.625V18.5ZM10.3075 20.961C10.2248 20.9621 10.1461 20.9893 10.0884 21.0367C10.0308 21.0841 9.999 21.1479 10 21.214V22.3185C10 22.3848 10.0329 22.4484 10.0915 22.4953C10.1501 22.5422 10.2296 22.5685 10.3125 22.5685C10.3954 22.5685 10.4749 22.5422 10.5335 22.4953C10.5921 22.4484 10.625 22.3848 10.625 22.3185V21.2135C10.6254 21.1801 10.6175 21.147 10.6017 21.1161C10.5858 21.0852 10.5624 21.0572 10.5328 21.0337C10.5032 21.0101 10.4681 20.9916 10.4294 20.9791C10.3907 20.9666 10.3492 20.9605 10.3075 20.961ZM1.25125 26.5H33.75V27.5H1.25125V26.5Z" fill="black"/>
</svg>
